PathFileType	4	(X/Y/Z)	D:\TRACE\v60_Jaco2_6-2-23\BothDRS_Motion2_4-platform.trc
DataRate	CameraRate	NumFrames	NumMarkers	Units	OrigDataRate	OrigDataStartFrame	OrigNumFrames
100.00	100.00	      71	5	mm	100.00	2813	      7500
Frame#	Time	Left_Front			Right_Front			Left_Aft			Right_Aft			Post			
		X1	Y1	Z1	X2	Y2	Z2	X3	Y3	Z3	X4	Y4	Z4	X5	Y5	Z5	

2813	28.120	-846.78113	-18.41027	-644.57642	723.28955	-16.95451	-649.69727	-754.55066	26.71836	489.91446	687.92767	26.51120	498.99530	-60.49200	1266.71228	-1022.53809	
2814	28.130	-847.46710	-19.75514	-644.66882	722.52252	-18.16226	-649.98120	-755.28265	27.47136	489.56921	687.42334	27.27092	498.75345	-61.09543	1264.82849	-1025.27454	
2815	28.140	-847.90063	-21.04867	-645.00037	722.05865	-19.72352	-650.42627	-755.44958	28.08657	488.73901	686.71472	28.09636	498.31497	-61.38742	1262.67737	-1027.99438	
2816	28.150	-848.54413	-22.43257	-645.20490	721.72290	-20.69717	-650.46252	-756.13940	28.91691	488.62833	686.26477	29.08307	498.01666	-62.22480	1260.94055	-1030.90674	
2817	28.160	-848.99951	-23.21469	-645.41553	721.07538	-22.04913	-650.96454	-756.69147	29.86893	488.28107	685.68164	29.79438	497.69354	-62.60542	1258.96802	-1033.32874	
2818	28.170	-849.44708	-24.61700	-645.60291	720.83997	-23.19002	-651.00714	-756.93433	30.64859	488.11057	685.22791	30.72512	497.46652	-63.34543	1257.08850	-1035.64990	
2819	28.180	-849.95941	-26.05766	-645.90833	720.16772	-24.42474	-651.35107	-757.34869	31.46481	487.89084	684.78827	31.57940	497.18918	-63.70592	1254.92322	-1037.76941	
2820	28.190	-850.11713	-27.04524	-646.09369	719.99695	-25.56384	-651.47852	-757.81287	32.34390	487.72818	684.44440	32.24603	496.97998	-63.92658	1253.34766	-1039.79419	
2821	28.200	-850.44464	-28.11774	-646.31671	719.55280	-26.80201	-651.76294	-758.21423	33.01830	487.35577	684.11169	33.19756	496.47955	-64.36402	1251.36304	-1041.95422	
2822	28.210	-850.74878	-29.37934	-646.33752	719.52753	-27.90558	-651.72760	-758.60480	33.75425	487.01410	683.71313	33.77634	496.22485	-64.57727	1249.69971	-1043.99304	
2823	28.220	-850.85956	-30.32090	-646.75275	719.12299	-28.84911	-652.10242	-758.69678	34.53928	486.70490	683.03033	34.33171	495.82178	-64.98624	1248.19641	-1045.91699	
2824	28.230	-851.19531	-31.25412	-646.77008	719.04614	-29.83603	-652.31110	-758.89478	35.30500	486.53815	682.44055	34.97741	495.79391	-65.31628	1246.22839	-1047.74500	
2825	28.240	-851.26923	-32.55348	-646.91443	718.96619	-31.01157	-652.48163	-759.05676	36.08387	486.18549	683.06909	35.99148	495.42593	-65.56769	1244.81799	-1049.53320	
2826	28.250	-851.29016	-33.84487	-646.99646	718.92920	-31.99910	-652.74347	-759.19183	36.81706	485.81693	682.71857	36.62182	495.07489	-65.29655	1243.14246	-1051.32935	
2827	28.260	-851.16095	-34.54211	-647.34723	718.88696	-33.10390	-652.91766	-759.17688	37.21127	485.53036	682.51971	37.35239	494.59604	-65.66439	1241.64990	-1053.24890	
2828	28.270	-851.17487	-34.71735	-647.65436	718.73798	-34.13478	-653.14789	-759.37445	38.15616	485.29816	682.41034	37.83032	493.91989	-66.03346	1239.83081	-1054.99121	
2829	28.280	-851.18610	-36.00568	-647.90100	718.74408	-34.65418	-653.36725	-759.26385	39.10760	485.10501	682.69861	38.91162	493.74692	-65.66837	1238.11902	-1056.83887	
2830	28.290	-851.11603	-37.45645	-647.88849	719.17456	-36.43824	-653.36462	-759.27692	39.53405	484.74829	682.63129	39.55033	493.44302	-65.93518	1236.62708	-1058.97815	
2831	28.300	-851.09290	-38.89519	-648.25635	718.78436	-37.46380	-653.82880	-759.39789	40.32250	484.30554	682.89386	40.61134	493.24469	-65.64288	1234.55981	-1061.40710	
2832	28.310	-850.88293	-39.83941	-648.56219	719.03967	-38.40595	-653.77704	-759.55432	41.16205	484.00769	682.81635	41.21938	492.88803	-65.50812	1232.79016	-1063.85901	
2833	28.320	-850.69214	-40.52412	-648.75995	719.11719	-39.55954	-654.15851	-758.93890	41.51598	483.42175	682.80780	41.84386	492.52872	-65.17381	1231.52710	-1066.64612	
2834	28.330	-850.51624	-41.60780	-648.83643	719.54578	-40.31441	-654.19006	-758.47760	41.98702	483.27118	683.59314	42.52547	492.18723	-64.78175	1229.51440	-1069.57227	
2835	28.340	-850.26556	-42.26831	-648.86572	720.04071	-41.34375	-654.18414	-758.09833	42.83538	482.98715	683.96869	43.18943	492.09915	-64.33982	1228.15125	-1072.41614	
2836	28.350	-850.42297	-42.88413	-648.75208	720.40186	-41.79654	-654.22803	-758.54968	44.36137	482.01584	684.33478	43.79819	491.85791	-64.02180	1226.92627	-1074.97327	
2837	28.360	-849.82404	-43.89370	-649.18054	720.55988	-42.88719	-654.59778	-757.47498	43.64619	482.52814	684.61420	44.41782	491.71051	-63.80820	1225.48169	-1077.43628	
2838	28.370	-849.27112	-44.75942	-649.45233	720.94763	-43.61517	-654.68530	-757.08972	43.85229	482.22147	684.76215	44.81391	491.55008	-63.54455	1224.26990	-1080.15039	
2839	28.380	-848.72681	-45.43037	-649.30334	721.32056	-44.13958	-654.58813	-756.78479	44.27288	482.09280	685.27026	45.24748	491.23636	-62.57467	1223.01233	-1083.07898	
2840	28.390	-848.24408	-46.09243	-649.28119	721.55389	-44.66352	-654.74847	-755.99652	44.50334	482.29440	685.53644	45.52658	491.05350	-62.50684	1222.14429	-1085.53455	
2841	28.400	-848.14001	-46.80958	-649.40540	721.86426	-44.97277	-654.84119	-756.05927	45.22923	481.91525	686.01135	45.97673	490.90927	-62.28889	1221.20081	-1087.82324	
2842	28.410	-847.77283	-47.08974	-649.64441	722.43066	-45.81708	-655.02014	-755.67474	45.79080	481.77542	686.72406	46.39356	490.59705	-61.71219	1220.01184	-1090.20972	
2843	28.420	-847.36163	-47.67482	-649.86670	723.01349	-46.45286	-655.11371	-755.26935	46.16114	481.56985	687.13141	46.76501	490.46802	-60.86600	1218.84082	-1092.24963	
2844	28.430	-846.89478	-48.37080	-649.96967	723.54901	-47.03885	-655.30408	-754.56738	46.28157	481.50876	687.42499	46.98547	490.29276	-60.47763	1218.09973	-1094.57446	
2845	28.440	-846.09192	-48.89635	-649.77063	724.03613	-47.39265	-655.31378	-754.23138	46.59415	481.27643	687.84619	47.43290	490.25497	-60.28475	1217.29590	-1096.63245	
2846	28.450	-845.65686	-49.35502	-649.68854	724.51489	-47.70147	-655.28546	-753.58459	47.15515	481.29730	688.45514	47.79986	490.03555	-59.75344	1216.14966	-1099.00867	
2847	28.460	-845.25946	-49.87633	-649.82770	724.84869	-48.09135	-655.35559	-753.34912	47.40123	481.16299	689.05920	48.28913	490.02054	-59.27808	1215.48010	-1101.00403	
2848	28.470	-844.73236	-50.39188	-650.27411	725.63177	-48.46266	-655.25342	-752.75128	47.44301	481.00705	689.54810	48.52050	489.79160	-58.15370	1214.55481	-1102.78406	
2849	28.480	-844.31628	-50.63350	-650.36383	726.01160	-48.87458	-655.33521	-751.79718	47.44896	481.49667	689.82825	48.79363	489.69290	-58.00790	1213.60950	-1104.74854	
2850	28.490	-843.83398	-51.06326	-650.38196	726.67615	-49.44173	-655.57892	-751.51630	48.18326	480.59399	690.30603	49.03395	489.53363	-57.00235	1212.85437	-1106.52271	
2851	28.500	-843.39337	-50.98907	-650.21069	727.43329	-49.86583	-655.58978	-750.93884	48.38358	480.38928	691.19342	49.42354	489.39874	-56.56618	1212.15063	-1107.66553	
2852	28.510	-842.49774	-51.47176	-650.22467	727.94141	-50.09906	-655.59131	-750.39215	48.69909	480.23636	692.10339	49.71997	489.33276	-56.30201	1211.74182	-1109.47473	
2853	28.520	-841.87366	-51.88981	-650.16663	728.58881	-50.32204	-655.32001	-749.84930	48.87627	480.24039	692.28180	49.80487	489.21490	-55.53019	1211.30457	-1110.99158	
2854	28.530	-841.14166	-52.32627	-650.44879	728.84821	-50.72692	-655.59436	-748.54004	48.20642	480.95282	692.85303	49.91820	489.16095	-54.44243	1210.71228	-1112.68298	
2855	28.540	-840.82733	-52.46947	-650.75037	729.68372	-50.96838	-655.73718	-748.45880	48.93585	480.09897	693.53900	50.08765	489.17032	-54.19825	1210.37122	-1113.36072	
2856	28.550	-839.91602	-52.58316	-650.62170	730.43317	-51.11052	-655.87891	-747.76947	48.95879	480.09659	694.38635	50.22168	489.07700	-53.28170	1209.92664	-1114.73352	
2857	28.560	-839.08167	-52.47456	-650.72607	731.08893	-50.95680	-655.89960	-747.17444	49.13742	480.16245	694.71747	50.09026	489.02515	-52.81202	1209.79712	-1115.58752	
2858	28.570	-838.24249	-52.58764	-650.46198	731.88751	-50.97396	-655.76184	-746.39587	49.21487	480.12204	695.54980	50.10172	489.01007	-51.75636	1209.56335	-1116.50916	
2859	28.580	-837.81671	-52.73610	-650.42810	732.80896	-50.96209	-655.54303	-745.75031	49.26989	479.93115	696.39801	50.28894	489.10342	-51.25468	1209.60095	-1116.92346	
2860	28.590	-837.08215	-52.77059	-650.64209	733.20404	-50.94807	-655.78735	-744.99994	49.24582	479.96606	697.19916	50.27774	489.01340	-50.59619	1209.52283	-1117.74390	
2861	28.600	-836.23529	-52.85579	-650.75061	734.12823	-50.95092	-655.80121	-744.16345	49.15429	479.88196	697.73004	50.12536	488.90469	-49.80658	1209.48096	-1118.03699	
2862	28.610	-835.33594	-52.36073	-650.81415	734.72479	-50.83993	-655.97919	-743.37256	49.10094	479.88675	698.69299	50.10450	488.98672	-48.93865	1209.68127	-1118.06311	
2863	28.620	-834.71606	-52.22251	-650.55804	735.30835	-50.57905	-655.91583	-742.73395	48.97390	479.89905	699.53033	50.17159	489.19067	-47.85499	1209.88220	-1118.33594	
2864	28.630	-833.90149	-52.21180	-650.41833	736.15692	-50.78528	-655.54657	-741.92181	48.95240	480.09702	700.04626	49.94549	489.09183	-47.48808	1210.21643	-1118.35352	
2865	28.640	-833.31604	-52.52211	-650.52008	737.23535	-50.24404	-655.66986	-741.04803	49.07434	480.17825	700.96991	49.76447	489.05075	-46.34778	1210.33374	-1117.89685	
2866	28.650	-832.24139	-52.40834	-650.69971	737.97119	-50.21642	-655.74927	-740.29199	48.73626	480.21509	701.97015	49.81471	489.25665	-45.39197	1210.37988	-1117.72705	
2867	28.660	-831.37689	-51.97512	-650.61774	738.84772	-49.99034	-655.88672	-739.42871	48.35635	480.23392	702.55768	49.51548	489.20520	-44.44923	1210.83521	-1116.93811	
2868	28.670	-830.58893	-51.52171	-650.40228	740.00006	-49.52098	-655.57556	-738.53394	48.35704	480.25189	703.88123	49.45573	489.91071	-43.56403	1211.54224	-1116.20093	
2869	28.680	-829.74786	-50.97796	-650.32349	740.56128	-49.03527	-655.55573	-737.71411	48.32885	480.35147	705.22009	49.71181	490.37750	-42.93023	1212.05188	-1115.08240	
2870	28.690	-828.93219	-50.76284	-650.22736	741.35455	-48.63541	-655.64362	-736.86658	48.10014	480.46155	705.99445	49.41241	490.53406	-42.38433	1212.91077	-1114.02344	
2871	28.700	-827.97955	-50.67570	-650.32324	742.32678	-48.40280	-655.70746	-735.70837	47.59508	480.52896	707.25189	49.04012	490.68344	-41.38103	1213.74902	-1112.92883	
2872	28.710	-826.88220	-50.23563	-650.33093	743.06122	-48.64494	-655.55951	-735.00024	47.24328	480.76263	707.94696	48.74702	490.68613	-40.42096	1214.21021	-1111.72681	
2873	28.720	-826.11090	-49.50348	-650.09222	744.08350	-47.55368	-655.40424	-734.11456	46.76702	480.78809	708.93060	48.38698	491.04892	-39.25949	1215.13672	-1109.94604	
2874	28.730	-825.15070	-48.69965	-650.11890	745.13373	-47.09013	-655.23474	-732.76361	46.45134	480.99759	709.97913	48.17120	491.23157	-38.60698	1216.16418	-1108.52698	
2875	28.740	-824.08850	-48.21183	-650.17590	746.46936	-46.35920	-655.09436	-732.15887	46.44385	481.22827	710.71735	47.63844	491.25916	-37.73917	1217.44324	-1106.76685	
2876	28.750	-823.27924	-47.85715	-649.91309	747.14355	-45.74628	-655.17413	-731.20569	45.97293	481.39108	711.66022	47.24928	491.47263	-36.45722	1218.26758	-1105.07349	
2877	28.760	-822.39178	-47.25947	-649.90424	748.10309	-45.11818	-654.74890	-730.05994	45.29829	481.40646	712.68665	46.74139	491.52759	-35.75372	1219.36462	-1103.00500	
2878	28.770	-821.23700	-46.69492	-649.58478	748.88501	-44.56044	-655.14655	-729.25043	44.70547	481.67184	713.38965	46.21346	491.63666	-34.52856	1220.62646	-1101.26526	
2879	28.780	-820.15649	-45.84707	-649.61932	750.05505	-43.83271	-654.98608	-728.24249	44.31835	481.92783	714.57751	45.85299	491.86383	-33.74310	1221.79211	-1098.88379	
2880	28.790	-819.04449	-44.88508	-649.51074	750.78577	-43.28864	-654.81415	-727.11383	44.01756	482.19305	715.69806	45.41133	492.02280	-33.07813	1223.18896	-1096.43347	
2881	28.800	-818.29419	-44.23930	-649.37054	752.24524	-42.29074	-654.39191	-726.27539	43.80507	482.45844	716.52063	44.78701	492.16971	-31.49172	1224.29333	-1094.55164	
2882	28.810	-817.28754	-43.46102	-649.29974	752.88477	-41.58059	-654.67975	-725.05261	43.04786	482.64197	717.72571	44.30729	492.50143	-30.67017	1225.80176	-1092.06616	
2883	28.820	-816.10278	-42.86949	-649.24115	753.96216	-40.66965	-654.49036	-724.12994	42.43462	482.83539	718.60486	43.78103	492.71701	-29.85532	1227.19312	-1089.52844	
